<svg xmlns="http://www.w3.org/2000/svg" aria-hidden="true" overflow="hidden" style="position:absolute;width:0;height:0">
  <defs>
    <symbol id="icon-checked" viewBox="0 0 32 32">
      <path d="M12.636 31.213c1.395 0 2.449-.536 3.163-1.607l15.448-23.28c.257-.379.446-.753.569-1.121.123-.379.184-.742.184-1.088 0-.96-.335-1.752-1.004-2.377-.658-.636-1.473-.954-2.444-.954-.669 0-1.238.134-1.707.402-.457.257-.893.703-1.305 1.339L12.569 22.895l-6.494-7.782c-.703-.815-1.584-1.222-2.644-1.222-.993 0-1.813.318-2.46.954S0 16.279 0 17.238c0 .435.067.848.201 1.238.145.379.407.775.787 1.188l8.619 10.159c.792.926 1.802 1.389 3.029 1.389z"/>
    </symbol>
    <symbol id="icon-chocolate-bar" viewBox="0 0 32 32">
      <path d="m13.824 2.413 7.528 7.535.08-.08a.857.857 0 0 1 1.185-.013l.873.873c.305.305.315.77.083 1.094l-.004.007-.143.192 6.161 6.159c.55.55.55 1.43 0 1.98l-9.432 9.428c-.55.55-1.43.55-1.98 0l-4.448-4.446a.853.853 0 0 1-.612.317.842.842 0 0 1-.644-.246l-2.6-2.6a.856.856 0 0 1-.013-1.184l.006-.007.077-.076-7.528-7.526c-.55-.55-.55-1.43 0-1.98l9.432-9.428c.55-.55 1.43-.55 1.98 0zm6.583 8.478-1.756-1.755a.59.59 0 0 0-.85 0l-3.581 3.579a.621.621 0 0 0-.179.43.602.602 0 0 0 .179.43l1.749 1.749.61-.61-1.565-1.565 3.211-3.219 1.569 1.574zm-5.077 5.072-1.754-1.754a.59.59 0 0 0-.85 0l-3.591 3.589c-.24.23-.24.61 0 .85l1.752 1.752.616-.616-1.57-1.564 3.221-3.209 1.564 1.563zM8.823 8.192l3.581 3.579c.24.24.62.24.85-.01l3.581-3.579a.577.577 0 0 0 .18-.419h.01c0-.15-.06-.31-.18-.43l-3.581-3.579a.602.602 0 0 0-.86 0L8.823 7.343c-.24.23-.24.61 0 .85zm-5.071 5.069 3.581 3.579c.24.24.62.24.85 0l3.581-3.579a.578.578 0 0 0 .18-.43h.01c0-.16-.06-.31-.18-.43L8.193 8.822a.59.59 0 0 0-.85 0l-3.591 3.589c-.24.23-.24.61 0 .85zm6.935 8.752 2.362 2.363 9.638-13.038-.655-.655z"/>
      <path d="m13.824 2.413 7.528 7.535.08-.08a.857.857 0 0 1 1.185-.013l.873.873c.305.305.315.77.083 1.094l-.004.007-.143.192 6.161 6.159c.55.55.55 1.43 0 1.98l-9.432 9.428c-.55.55-1.43.55-1.98 0l-4.448-4.446a.853.853 0 0 1-.612.317.842.842 0 0 1-.644-.246l-2.6-2.6a.856.856 0 0 1-.013-1.184l.006-.007.077-.076-7.528-7.526c-.55-.55-.55-1.43 0-1.98l9.432-9.428c.55-.55 1.43-.55 1.98 0zm6.583 8.478-1.756-1.755a.59.59 0 0 0-.85 0l-3.581 3.579a.621.621 0 0 0-.179.43.602.602 0 0 0 .179.43l1.749 1.749.61-.61-1.565-1.565 3.211-3.219 1.569 1.574zm-5.077 5.072-1.754-1.754a.59.59 0 0 0-.85 0l-3.591 3.589c-.24.23-.24.61 0 .85l1.752 1.752.616-.616-1.57-1.564 3.221-3.209 1.564 1.563zM8.823 8.192l3.581 3.579c.24.24.62.24.85-.01l3.581-3.579a.577.577 0 0 0 .18-.419h.01c0-.15-.06-.31-.18-.43l-3.581-3.579a.602.602 0 0 0-.86 0L8.823 7.343c-.24.23-.24.61 0 .85zm-5.071 5.069 3.581 3.579c.24.24.62.24.85 0l3.581-3.579a.578.578 0 0 0 .18-.43h.01c0-.16-.06-.31-.18-.43L8.193 8.822a.59.59 0 0 0-.85 0l-3.591 3.589c-.24.23-.24.61 0 .85zm6.935 8.752 2.362 2.363 9.638-13.038-.655-.655z"/>
    </symbol>
    <symbol id="icon-chocolate-logo" viewBox="0 0 32 32">
      <path d="M15.541.618a1.36 1.36 0 0 0-.839.596l-.003.006L2.801 20.47a1.31 1.31 0 0 0-.198.694c0 .475.252.892.63 1.128l.006.003 14.379 8.865c.203.127.451.203.717.203.487 0 .913-.254 1.151-.635l.003-.006 9.582-15.505a1.31 1.31 0 0 0 .198-.694 1.33 1.33 0 0 0-.63-1.128l-.006-.003c-1.474-.909-2.296-1.665-2.529-2.201s-.222-1.145.657-2.568a1.31 1.31 0 0 0 .198-.694 1.33 1.33 0 0 0-.63-1.128l-.006-.003L16.566.785A1.352 1.352 0 0 0 15.53.621l.009-.002zm.753 3.141 4.897 3.021-2.558 4.138L13.736 7.9zm7.191 4.432.462.286c-.565 1.336-.815 2.634-.322 3.766.483 1.108 1.414 1.893 2.489 2.641l-.29.469-4.897-3.021zm-11.156 1.985 4.897 3.021-2.558 4.138-4.897-3.018zm7.191 4.435 4.897 3.018-2.558 4.141-4.897-3.021zM8.364 16.592l4.897 3.021-2.558 4.138-4.897-3.018zm7.191 4.433 4.897 3.021-2.561 4.138-4.897-3.018z"/>
    </symbol>
    <symbol id="icon-close" viewBox="0 0 32 32">
      <path d="m23.192 7.192-16 16a1.138 1.138 0 0 0 0 1.616 1.138 1.138 0 0 0 1.616 0l16-16a1.138 1.138 0 0 0 0-1.616 1.138 1.138 0 0 0-1.616 0z"/>
      <path d="M8 6.857c-.316 0-.601.128-.808.335a1.138 1.138 0 0 0 0 1.616l16 16a1.138 1.138 0 0 0 1.616 0 1.138 1.138 0 0 0 0-1.616l-16-16A1.138 1.138 0 0 0 8 6.857z"/>
    </symbol>
    <symbol id="icon-coin" viewBox="0 0 32 32">
      <path d="M16 2.667c-7.333 0-13.333 6-13.333 13.333s6 13.333 13.333 13.333 13.333-6 13.333-13.333S23.333 2.667 16 2.667zm0 24c-5.867 0-10.667-4.8-10.667-10.667S10.133 5.333 16 5.333 26.667 10.133 26.667 16 21.867 26.667 16 26.667z"/>
      <path d="M17.733 14.667h-3.467c-.667 0-1.2-.533-1.2-1.2s.533-1.2 1.2-1.2h4.933c.8 0 1.333-.533 1.333-1.333s-.533-1.333-1.333-1.333h-1.867v-1.2c0-.8-.533-1.333-1.333-1.333s-1.333.533-1.333 1.333v1.2h-.4c-2.133 0-3.867 1.733-3.867 3.867s1.733 3.867 3.867 3.867h3.333c.667 0 1.2.533 1.2 1.2s-.533 1.2-1.2 1.2h-4.933c-.8 0-1.333.533-1.333 1.333s.533 1.333 1.333 1.333h2v1.2c0 .8.533 1.333 1.333 1.333s1.333-.533 1.333-1.333v-1.2h.4c2.133 0 3.867-1.733 3.867-3.867s-1.733-3.867-3.867-3.867z"/>
    </symbol>
    <symbol id="icon-instagram" viewBox="0 0 32 32">
      <path d="M9.333 1.333c-4.402 0-8 3.598-8 8v13.333c0 4.402 3.598 8 8 8h13.333c4.402 0 8-3.598 8-8V9.333c0-4.402-3.598-8-8-8zm0 2.667h13.333a5.313 5.313 0 0 1 5.333 5.333v13.333a5.313 5.313 0 0 1-5.333 5.333H9.333A5.313 5.313 0 0 1 4 22.666V9.333A5.313 5.313 0 0 1 9.333 4z"/>
      <path d="M17.036 9.349a6.664 6.664 0 0 0-2.038 13.174 6.66 6.66 0 0 0 6.976-3.51 6.662 6.662 0 0 0-4.937-9.663zm-.393 2.635a4.003 4.003 0 0 1 1.213 7.531 4.003 4.003 0 0 1-5.373-5.373 4.003 4.003 0 0 1 4.159-2.159zM23.333 7.333a1.333 1.333 0 0 0 0 2.666h.013a1.333 1.333 0 0 0 0-2.666z"/>
    </symbol>
    <symbol id="icon-mail" viewBox="0 0 32 32">
      <path d="M5.333 4c-2.194 0-4 1.806-4 4v16c0 2.194 1.806 4 4 4h21.333c2.194 0 4-1.806 4-4V8c0-2.194-1.806-4-4-4zm0 2.667h21.333A1.33 1.33 0 0 1 27.999 8v16a1.33 1.33 0 0 1-1.333 1.333H5.333A1.33 1.33 0 0 1 4 24V8a1.33 1.33 0 0 1 1.333-1.333z"/>
      <path d="M29.565 6.688a1.328 1.328 0 0 0-1.002.224l.004-.003-12.568 8.797L3.431 6.909a1.33 1.33 0 0 0-1.854.321l-.003.004a1.33 1.33 0 0 0 .321 1.854l.004.003 13.333 9.333c.213.151.479.242.766.242s.552-.09.77-.244l-.004.003 13.333-9.333a1.333 1.333 0 0 0 .323-1.861l.003.004a1.337 1.337 0 0 0-.851-.546l-.008-.001z"/>
    </symbol>
    <symbol id="icon-menu" viewBox="0 0 32 32">
      <path d="M4.799 8.001a1.6 1.6 0 0 1 1.6-1.6h19.2a1.6 1.6 0 0 1 0 3.2h-19.2a1.6 1.6 0 0 1-1.6-1.6zM4.799 16.001a1.6 1.6 0 0 1 1.6-1.6h19.2a1.6 1.6 0 0 1 0 3.2h-19.2a1.6 1.6 0 0 1-1.6-1.6zM4.799 24.001a1.6 1.6 0 0 1 1.6-1.6h19.2a1.6 1.6 0 0 1 0 3.2h-19.2a1.6 1.6 0 0 1-1.6-1.6z"/>
    </symbol>
    <symbol id="icon-phone" viewBox="0 0 32 32">
      <path d="M5.479 1.333a4.014 4.014 0 0 0-2.951 1.302 4.01 4.01 0 0 0-1.029 3.057V5.713v-.001a27.734 27.734 0 0 0 4.302 12.143v.003a27.31 27.31 0 0 0 8.404 8.398 27.724 27.724 0 0 0 12.078 4.294l.018.002.006.001a4.008 4.008 0 0 0 3.063-1.036c.411-.377.738-.834.961-1.344v-.002c.223-.51.338-1.06.336-1.617v-3.961a4.004 4.004 0 0 0-3.44-4.06l-.004-.001-.009-.001a15.838 15.838 0 0 1-3.451-.859h-.003a4.007 4.007 0 0 0-4.219.901l-.005.005-.878.878a19.883 19.883 0 0 1-6.114-6.114l.878-.878.005-.005a4.005 4.005 0 0 0 .901-4.219v-.003a15.724 15.724 0 0 1-.859-3.451l-.004-.022.002.009a3.997 3.997 0 0 0-3.999-3.44zm0 2.667H9.493a1.336 1.336 0 0 1 1.334 1.146v-.01c.182 1.38.519 2.733 1.005 4.036v.006a1.336 1.336 0 0 1-.3 1.406l-1.688 1.688a1.33 1.33 0 0 0-.212 1.608l-.003-.006a22.666 22.666 0 0 0 8.5 8.5 1.332 1.332 0 0 0 1.602-.216l1.688-1.688a1.332 1.332 0 0 1 1.408-.3h.002c1.304.486 2.657.823 4.036 1.005h-.01c.324.046.619.209.831.458s.323.566.315.893v.035-.001 4.006a1.332 1.332 0 0 1-1.445 1.333 25.048 25.048 0 0 1-10.909-3.883l-.007-.005-.003-.002a24.659 24.659 0 0 1-7.591-7.588l-.009-.018.004.007A25.06 25.06 0 0 1 4.158 5.441a1.327 1.327 0 0 1 1.323-1.44z"/>
    </symbol>
    <symbol id="icon-review-marker" viewBox="0 0 32 32">
      <path d="M16 32c8.837 0 16-7.163 16-16S24.837 0 16 0 0 7.163 0 16s7.163 16 16 16z"/>
    </symbol>
    <symbol id="icon-scroll" viewBox="0 0 32 32">
      <path d="M16.947 17.867a1.334 1.334 0 0 1-1.894 0l-6.107-6.12a1.334 1.334 0 1 0-1.894 1.88l6.12 6.12a4.001 4.001 0 0 0 5.654 0l6.12-6.12a1.337 1.337 0 0 0-.434-2.172 1.331 1.331 0 0 0-1.46.292l-6.107 6.12z"/>
    </symbol>
    <symbol id="icon-spoon" viewBox="0 0 32 32">
      <path d="M15.451 14.106a5.154 5.154 0 0 1-1.177-3.282c0-4.324 5.181-8.642 10.362-8.642a5.183 5.183 0 0 1 5.181 5.182c0 5.182-4.318 10.364-8.646 10.364a5.151 5.151 0 0 1-3.281-1.177L5.132 29.312a1.73 1.73 0 0 1-2.445-2.445l12.764-12.761z"/>
    </symbol>
    <symbol id="icon-twitter" viewBox="0 0 32 32">
      <path d="M21.536 2.667a7.295 7.295 0 0 0-5.609 3.19 7.29 7.29 0 0 0-1.24 4.06c-1.68-.125-3.334-.486-4.846-1.247-1.71-.861-4.195-3.318-5.417-5.057a1.333 1.333 0 0 0-2.343.306l-.003.009s-1.267 3.478-.906 7.708c.312 3.651 2.152 7.912 6.732 10.87-2.048.96-4.237 1.586-6.518 1.495L1.329 24a1.333 1.333 0 0 0-.65 2.497l.007.003c6.367 3.537 13.523 3.567 19.109.594S29.334 18.092 29.334 10v-.006c-.001-.241-.046-.477-.07-.716 1.276-1.424 2.244-3.099 2.698-4.964a1.333 1.333 0 0 0-2.066-1.4l.004-.003c-.982.693-2.091 1.165-3.221 1.568-.857-.735-1.825-1.33-2.93-1.607a7.308 7.308 0 0 0-2.211-.206zm1.563 2.791a4.638 4.638 0 0 1 2.375 1.456 1.333 1.333 0 0 0 1.4.401l-.009.003c.328-.099.597-.329.917-.448-.27.363-.498.756-.823 1.076a1.328 1.328 0 0 0-.373 1.206l-.001-.008c.054.284.082.573.083.862-.002 7.238-3.382 12.209-8.128 14.734-3.453 1.838-7.663 2.309-11.87 1.25a16.829 16.829 0 0 0 4.747-2.219 1.335 1.335 0 0 0-.2-2.32l-.008-.003c-5.575-2.478-7.075-6.459-7.38-10.039-.137-1.604.043-2.995.237-4.148 1.357 1.497 2.899 2.948 4.576 3.792a15.549 15.549 0 0 0 7.393 1.654 1.334 1.334 0 0 0 1.299-1.333v-1.349a4.636 4.636 0 0 1 2.984-4.398 4.646 4.646 0 0 1 2.781-.167z"/>
    </symbol>
    <symbol id="icon-user" viewBox="0 0 32 32">
      <path d="M10.667 18.667A6.668 6.668 0 0 0 4 25.334v2.667a1.333 1.333 0 0 0 2.666 0v-2.667a4.001 4.001 0 0 1 4-4h10.667a4.001 4.001 0 0 1 4 4v2.667a1.333 1.333 0 0 0 2.666 0v-2.667a6.668 6.668 0 0 0-6.667-6.667zM16 2.667c-3.666 0-6.667 3.001-6.667 6.667s3.001 6.667 6.667 6.667S22.667 13 22.667 9.334 19.666 2.667 16 2.667zm0 2.666c2.225 0 4 1.775 4 4s-1.775 4-4 4-4-1.775-4-4 1.775-4 4-4z"/>
    </symbol>
    <symbol id="icon-x" viewBox="0 0 32 32">
      <path d="M24.325 3h4.411L19.1 14.013 30.436 29H21.56l-6.952-9.089L6.653 29H2.24l10.307-11.78L1.672 3h9.101l6.284 8.308zm-1.548 23.36h2.444L9.445 5.501H6.822z"/>
    </symbol>
  </defs>
</svg>
